<svg xmlns="http://www.w3.org/2000/svg" viewBox="0 0 800 500" role="img" aria-labelledby="title desc">
  <title id="title">Travel Agency Website</title>
  <desc id="desc">Abstract preview card for the Travel Agency Website project.</desc>
  <defs>
    <linearGradient id="bg" x1="0" x2="1" y1="0" y2="1">
      <stop offset="0%" stop-color="#14532d"/>
      <stop offset="100%" stop-color="#0f766e"/>
    </linearGradient>
  </defs>
  <rect width="800" height="500" fill="url(#bg)"/>
  <path d="M0 370 C140 300 220 330 320 280 C410 236 510 220 800 310 L800 500 L0 500 Z" fill="#fef3c7" opacity="0.86"/>
  <path d="M0 398 C130 348 240 382 340 338 C470 280 610 276 800 350 L800 500 L0 500 Z" fill="#fde68a" opacity="0.72"/>
  <rect x="74" y="62" width="652" height="120" rx="28" fill="rgba(255,255,255,0.08)" stroke="rgba(255,255,255,0.16)"/>
  <text x="108" y="138" fill="#ecfdf5" font-family="Segoe UI, Arial, sans-serif" font-size="56" font-weight="700">Travel Agency Website</text>
  <circle cx="644" cy="106" r="34" fill="#facc15" opacity="0.95"/>
  <path d="M142 274 L238 344 L96 344 Z" fill="#134e4a"/>
  <path d="M262 242 L398 344 L186 344 Z" fill="#166534"/>
  <path d="M448 254 L594 344 L334 344 Z" fill="#0f766e"/>
</svg>
